<svg version="1.1" xmlns="http://www.w3.org/2000/svg" xmlns:xlink="http://www.w3.org/1999/xlink" width="42.85075" height="43.64433" viewBox="0,0,42.85075,43.64433"><g transform="translate(-209,-149.00678)"><g data-paper-data="{&quot;isPaintingLayer&quot;:true}" fill-rule="nonzero" stroke="none" stroke-width="1" stroke-linecap="butt" stroke-linejoin="miter" stroke-miterlimit="10" stroke-dasharray="" stroke-dashoffset="0" style="mix-blend-mode: normal"><g><path d="M249.69292,172.69621c0,10.00536 -8.6265,18.11873 -19.26962,18.11873c-10.64312,0 -19.26892,-8.10995 -19.26892,-18.11873c0,-10.00536 8.62511,-14.65299 19.26892,-14.65299c10.64245,-0.00069 19.26962,4.64833 19.26962,14.65299z" fill="#ec1c2c"/><g fill="#231f20"><path d="M251.85075,172.50267c0,11.12731 -9.59209,20.14845 -21.42606,20.14845c-11.83189,0 -21.42469,-9.02114 -21.42469,-20.14845c0,-9.8063 7.45286,-14.22114 17.32116,-15.13303c0,0 3.11864,-0.39948 6.29236,-0.13018c10.80224,0.50279 19.23723,4.8329 19.23723,15.2632zM248.582,172.79815c0,-8.67953 -6.89225,-13.07507 -15.80593,-13.71974c0,0 -5.65251,0.07921 -5.824,0.09918c-8.36477,0.92361 -14.67986,5.31019 -14.67986,13.61917c0,9.42611 8.12579,17.07046 18.15318,17.07046c10.02669,0 18.15249,-7.64296 18.15661,-17.06907z"/><path d="M236.591,163.51047c-2.45744,0.12467 -4.81154,0.18664 -7.2738,0.46282c-1.64404,0.18458 -3.22814,0.19906 -4.44584,-1.04274c-0.26448,-0.27206 0.08127,-0.74109 0.41188,-0.5324c0.81409,0.51036 1.63438,0.71698 2.4595,0.75692c0.05373,0.04409 2.94366,-0.33749 4.2633,-0.75624c1.59237,-0.43391 3.18613,-0.79204 4.7723,-0.26791c0.75831,0.2507 0.61161,1.33755 -0.18734,1.37955z"/></g><path d="M217.64714,172.59909c0,2.36307 1.27418,4.27847 -0.05785,4.27847c-1.33203,0 -2.41059,-1.9154 -2.41059,-4.27847c0,-2.36238 1.07856,-4.27778 2.41059,-4.27778c1.33203,0 0.05785,1.91607 0.05785,4.27778z" fill="#ffffff"/></g><g><path d="M225.6097,152.22956c0.70321,-0.42013 1.40434,-0.84164 2.10686,-1.26246c0.50554,0.77691 1.01382,1.53519 1.42156,2.3982c1.48907,3.14341 1.16122,6.46385 1.11852,9.78841c-0.25828,0.0613 -0.67291,0.10537 -0.92843,0.15082c0.1777,-4.23439 -0.82992,-8.11613 -3.71851,-11.07497z" fill="#99661d"/><path d="M231.93303,161.70113c0,0 -0.15842,1.29209 -0.17288,1.53591c0,0 -2.59725,0.77413 -3.6159,0.38707l-0.03167,-1.10819c0.02067,-2.21431 -0.66809,-4.59254 -1.07582,-5.33706c-0.19491,-0.35539 -0.98009,-2.38719 -3.37484,-4.51608c-0.41049,-0.36297 -0.27206,-1.04343 0.16667,-1.30722c1.24455,-0.74661 2.48568,-1.49319 3.72886,-2.2398c0.39946,-0.239 0.87125,-0.06061 1.14192,0.29961c3.80736,5.06776 3.35005,11.76164 3.23365,12.28577zM230.18639,162.19289c0.07715,-3.05938 0.33746,-5.90252 -1.04827,-8.8276c-0.40773,-0.863 -0.91601,-1.62129 -1.42156,-2.3982c-0.70252,0.42082 -1.40365,0.84234 -2.10686,1.26246c2.7288,2.79492 3.84317,6.17733 3.80875,10.11281v0.79343l0.76382,-0.09712z" fill="#231f20"/></g></g></g></svg>