<svg version="1.1" xmlns="http://www.w3.org/2000/svg" xmlns:xlink="http://www.w3.org/1999/xlink" width="149.74422" height="192.64826" viewBox="0,0,149.74422,192.64826"><g transform="translate(-188.25578,-54.87732)"><g data-paper-data="{&quot;isPaintingLayer&quot;:true}" stroke="none" stroke-linecap="butt" stroke-linejoin="miter" stroke-miterlimit="10" stroke-dasharray="" stroke-dashoffset="0" style="mix-blend-mode: normal"><g stroke-width="1"><path d="M248.41,201.6l-10.103,-0.6l-16.089,-5.875l-8.716,-8.925l-4.247,-15.094l6.127,-14.531l9.875,-8.775l10.36,-3.7l11.274,-1.6l11.666,0.9l12.225,3.2l12.252,5.9l5.778,8l0.997,4.6l0.996,8.378l-1.594,8.322l-4.184,8.1l-5.479,5.2l-9.065,5.1l-13.249,2.6l-8.824,-1.2" fill="#ffffff" fill-rule="evenodd"/><path d="M247.695,114.125l3.213,1.5l2.914,4.5l-0.822,6.15l-6.109,2.7l-5.896,-1.275l-3.461,-5.325l0.897,-4.05l4.558,-3.3l4.706,-0.9" fill="#ef463c" fill-rule="evenodd"/><path d="M283.259,163.55l2.54,11.4v8.175l-4.856,0.9l-4.184,-2.925l-0.897,5.625c0,0 -4.109,7.725 -4.259,7.95c-0.149,0.225 -7.097,4.575 -7.097,4.575l-1.719,2.25l3.138,-0.225l-1.195,5.325l-0.523,5.025l2.167,5.175l1.867,6.225l1.644,6.9l1.195,4.65l-0.672,3.6l-3.511,1.275l-2.84,-0.075l-3.063,2.625l-6.724,1.125l-4.341,-1.425l-3.038,-4.725l-2.632,-13.65l-4.782,1.575l-9.488,1.65l-4.184,0.075l0.821,2.025l0.972,8.175l-0.374,3.825l-3.81,2.55l-3.586,0.225l-6.052,2.7l-6.724,-0.75c0,0 -2.391,-2.325 -2.541,-2.55c-0.149,-0.225 -2.54,-7.65 -2.54,-7.65l-1.27,-7.95l0.897,-18.375l-2.914,-1.65l-5.006,-5.1l-3.81,-6.75l-0.747,-5.1l0.672,-2.325l2.54,-0.9l2.541,1.575l4.034,6.225l3.586,5.85l3.063,2.125l6.426,-2.05l7.994,3.3h9.563l10.492,-0.9l1.985,-2.55l-5.678,-3.375l-5.305,-6.975l-1.419,-4.725l-1.27,-3.225l-2.466,2.775c0,0 -3.063,2.55 -3.287,2.475c-0.224,-0.075 -2.391,-2.1 -2.391,-2.1l-2.839,-6.174l-0.373,-5.376v-9.3h19.798l4.208,-1.575l14.919,-1.275l10.609,1.95c0,0 13.897,-3.075 14.42,-3.15z" fill="#fcb322" fill-rule="evenodd"/><path d="M232.23,191.15c0,0 1.27,3.075 1.419,3.3c0.15,0.225 3.811,3.075 3.811,3.075l4.707,3.825l-7.173,2.775l-2.241,7.125l0.075,5.175l1.344,4.2l2.765,4.8l-7.92,1.35l-5.155,-0.975l-1.419,-1.8l-1.644,-6.225v-6.15l0.971,-5.625l0.075,-1.725l-8.667,-2.25c0,0 -1.27,-2.625 -1.195,-2.925c0.074,-0.3 0,-6 0,-6l1.345,-3.3l9.787,0.6h7.172z" fill="#71cbd2" fill-rule="evenodd"/><path d="M213.593,188.181c-0.849,-1.227 -1.857,-2.262 -2.357,-3.502c-0.848,-2.105 -1.474,-4.316 -2.02,-6.526c-1.319,-5.332 -0.393,-10.413 1.945,-15.291c1.599,-3.338 3.302,-6.64 5.885,-9.324c1.708,-1.773 3.632,-3.347 5.531,-4.921c4.61,-3.821 10.101,-5.394 15.898,-6.185c3.185,-0.434 6.357,-0.972 9.806,-1.504c-0.446,-3.561 -0.902,-7.2 -1.362,-10.877c-0.959,-0.137 -1.78,-0.324 -2.606,-0.359c-3.531,-0.153 -5.411,-2.403 -6.919,-5.263c-2.418,-4.584 1.295,-9.533 5.474,-10.687c1.952,-0.539 3.854,-0.599 5.812,-0.176c2.629,0.566 4.251,2.352 5.199,4.675c0.59,1.447 0.764,3.089 0.969,4.664c0.317,2.432 -1.266,4.788 -3.605,5.576c-0.595,0.199 -1.19,0.399 -1.901,0.637c0.285,3.986 0.568,7.968 0.855,11.981c2.175,0.198 4.368,0.308 6.534,0.616c3.842,0.546 7.67,1.111 11.391,2.356c4.378,1.465 8.577,3.307 12.584,5.562c1.409,0.793 2.566,2.045 3.815,3.113c2.404,2.058 4.648,5.478 5.691,8.483c0.25,0.72 0.425,1.443 0.666,2.146c1.52,4.432 0.86,9.387 0.239,13.993c-0.443,3.292 -1.593,6.272 -2.995,9.156c-0.881,1.813 -2.214,3.464 -3.593,4.959c-3.192,3.46 -6.781,6.472 -11.089,8.463c-2.002,0.926 -4.069,1.753 -6.179,2.378c-0.89,0.264 -0.782,0.81 -0.888,1.325c-0.454,2.198 -0.851,4.408 -1.266,6.615c-0.045,0.238 -0.162,0.516 -0.087,0.715c0.55,1.454 1.202,2.868 1.703,4.337c0.863,2.536 1.731,5.077 2.431,7.66c1.007,3.716 2.014,7.443 2.71,11.223c0.267,1.451 -0.163,3.102 -0.559,4.586c-0.412,1.545 -2.062,1.557 -3.273,1.938c-0.822,0.258 -1.794,0.015 -2.696,0.056c-0.386,0.018 -0.945,0.059 -1.121,0.307c-2.113,2.976 -5.138,3.686 -8.514,3.546c-1.031,-0.042 -2.084,-0.057 -3.082,-0.285c-2.429,-0.554 -4.322,-1.82 -5.558,-4.127c-1.756,-3.274 -2.084,-6.945 -3.116,-10.417c-0.416,-1.404 -0.604,-2.876 -0.945,-4.563c-0.792,0.188 -1.61,0.342 -2.403,0.579c-4.247,1.27 -8.55,2.134 -13.207,1.806c0,0.778 -0.189,1.564 0.033,2.208c0.985,2.854 1.332,5.801 1.409,8.785c0.018,0.719 -0.179,1.509 -0.494,2.159c-1.715,3.537 -4.495,4.569 -7.709,3.53c-0.239,-0.077 -0.653,0.09 -0.864,0.28c-2.478,2.229 -5.333,3.187 -8.669,2.884c-1.506,-0.136 -2.933,-0.297 -4.313,-1.026c-3.3,-1.744 -4.574,-4.705 -5.173,-8.151c-0.189,-1.087 -0.465,-2.163 -0.774,-3.223c-1.034,-3.545 -1.348,-7.2 -1.636,-10.853c-0.166,-2.118 -0.324,-4.264 -0.169,-6.375c0.184,-2.526 0.641,-5.038 1.121,-7.53c0.148,-0.769 0.058,-1.25 -0.575,-1.57c-3.617,-1.833 -5.773,-5.037 -7.897,-8.307c-1.868,-2.878 -2.884,-5.963 -3.357,-9.383c-0.239,-1.722 0.168,-2.875 1.082,-4.094c1.295,-1.728 2.767,-1.859 4.541,-0.637c1.895,1.305 2.901,3.209 3.819,5.187c1.133,2.441 2.494,4.794 4.158,6.911c0.819,1.04 1.71,2.101 2.73,2.95c1.149,0.96 1.626,0.355 2.853,-0.261c0.666,-0.335 2.426,-0.717 3,-1.313c0.659,-0.684 0.019,-1.603 -0.093,-2.387c-0.128,-0.893 -0.083,-1.924 0.006,-2.823c0.202,-2.045 0.981,-3.977 2.228,-5.605c0.219,-0.287 0.559,-0.479 0.946,-0.8zM264.344,200.424c0.452,0.256 0.527,0.336 0.589,0.327c0.332,-0.046 0.667,-0.09 0.99,-0.177c4.975,-1.343 9.512,-3.542 13.315,-7.079c1.749,-1.626 3.572,-3.24 4.994,-5.137c2.378,-3.174 3.919,-6.734 4.668,-10.739c0.86,-4.596 0.709,-9.03 -0.71,-13.421c-0.642,-1.984 -1.428,-3.962 -2.454,-5.768c-0.915,-1.61 -1.998,-3.327 -3.448,-4.391c-5.444,-3.99 -11.392,-6.983 -18.012,-8.624c-5.411,-1.34 -10.88,-2.182 -16.404,-1.758c-5.176,0.398 -10.365,0.912 -15.392,2.555c-3.653,1.194 -6.926,2.901 -9.891,5.303c-5.127,4.153 -8.802,9.354 -10.634,15.683c-0.694,2.398 -0.782,5.053 -0.692,7.575c0.074,2.087 0.774,4.16 1.279,6.218c0.282,1.154 0.5,2.422 1.142,3.37c2.375,3.511 4.795,7.016 8.665,9.124c1.658,0.903 3.205,2.034 4.917,2.806c2.282,1.029 4.652,1.883 7.031,2.671c1.471,0.487 3.028,0.712 4.791,1.108c-0.248,-0.333 -0.283,-0.435 -0.346,-0.458c-3.691,-1.33 -6.114,-3.969 -7.746,-7.461c-0.137,-0.293 -0.618,-0.593 -0.945,-0.599c-1.623,-0.031 -3.319,-0.191 -4.925,0.059c-0.927,0.144 -2.201,0.605 -2.835,-0.435c-1.093,-1.791 1.378,-1.59 2.272,-1.6c1.647,-0.018 3.328,-0.213 4.974,-0.318c-0.501,-1.762 -0.948,-3.332 -1.459,-5.127c-0.887,0.961 -1.536,1.788 -2.312,2.47c-0.854,0.75 -1.586,1.763 -2.969,1.632c-1.619,-0.152 -3.006,-0.673 -3.792,-2.201c-0.456,-0.887 -0.834,-1.816 -1.209,-2.741c-1.073,-2.643 -2.001,-5.335 -2.002,-8.231c0,-2.852 0.015,-5.708 0.163,-8.554c0.127,-2.415 0.844,-3.061 3.318,-3.15c2.366,-0.085 4.741,-0.12 7.106,-0.035c3.271,0.116 6.536,0.377 9.804,0.546c0.503,0.026 1.116,0.058 1.502,-0.189c2.89,-1.848 6.08,-2.798 9.432,-3.178c4.056,-0.46 8.127,-0.35 12.08,0.704c1.727,0.461 3.758,1.738 5.508,1.441c2.135,-0.364 4.382,-0.672 6.474,-1.239c1.348,-0.366 2.742,-0.535 4.106,-0.882c1.931,-0.491 4.589,-1.042 6.574,-0.624c1.471,0.31 2.358,2.353 2.951,3.697c1.324,2.999 1.795,6.26 1.94,9.512c0.141,3.159 0.451,6.111 0.083,9.259c-0.184,1.565 -1.634,2.754 -3.197,2.784c-1.957,0.039 -3.83,-0.405 -5.56,-1.642c-0.957,8.56 -5.874,13.824 -13.734,16.914zM250.904,162.622c-2.746,0.126 -5.506,0.763 -8.171,1.357c-2.437,0.544 -4.301,2.158 -6.128,3.723c-0.807,0.692 -1.475,1.674 -1.906,2.657c-1.377,3.136 -2.709,6.299 -3.852,9.527c-0.426,1.206 -0.576,2.671 -0.341,3.922c0.656,3.487 2.179,6.681 4.099,9.638c0.779,1.201 1.802,2.416 3.005,3.125c1.848,1.087 3.936,1.772 5.945,2.571c1.049,0.416 2.124,0.886 3.226,1.027c3.992,0.511 8.021,0.678 11.987,-0.082c4.349,-0.833 8.242,-2.813 11.692,-5.577c2.372,-1.9 3.661,-4.517 4.43,-7.445c1.05,-3.992 0.554,-7.269 -1.045,-10.964c-1.101,-2.544 -3.002,-5.43 -5.264,-7.051c-0.984,-0.705 -1.851,-1.589 -2.876,-2.225c-1.742,-1.081 -3.46,-2.446 -5.38,-2.937c-2.861,-0.732 -5.525,-1.288 -8.471,-1.288c-0.315,0 -0.633,0.008 -0.95,0.022zM242.844,222.6c0.005,0.029 -0.059,-0.249 -0.087,-0.531c-0.079,-0.812 -1.29,-5.264 0.533,-4.873c1.317,0.284 1.41,3.731 1.548,4.639c0.131,0.87 0.479,1.725 0.502,2.593c0.11,4.077 1.118,7.976 2.316,11.825c0.811,2.606 1.833,5.178 4.964,5.797c1.924,0.381 3.825,0.53 5.808,-0.055c3.521,-1.038 5.041,-3.237 4.401,-6.889c-0.449,-2.563 -0.864,-5.132 -1.403,-7.676c-0.337,-1.593 -0.729,-3.173 -1.106,-4.757c-0.222,-0.934 -0.756,-2.512 -0.591,-3.453c-0.247,0.521 -1.22,1.253 -1.783,0.57c-1.299,-1.576 1.994,-3.568 2.561,-4.642c0.814,-1.541 1.6,-3.144 2.062,-4.815c0.655,-2.363 1.008,-4.812 1.485,-7.203c-1.68,0.267 -3.116,0.546 -4.565,0.714c-1.475,0.171 -2.96,0.279 -4.445,0.328c-1.027,0.034 -2.067,-0.019 -3.089,-0.138c-1.569,-0.185 -3.138,-0.702 -4.69,-0.641c-2.468,0.096 -4.924,0.542 -7.383,0.861c-0.636,0.083 -1.27,0.216 -1.894,0.37c-0.91,0.223 -2.03,0.24 -2.651,0.801c-0.709,0.642 -1.01,2.236 -1.333,3.131c-0.407,1.126 -0.423,2.392 -0.506,3.586c-0.278,4 0.616,6.978 2.849,10.295c0.413,0.615 0.899,1.182 1.287,1.688c1.682,-0.492 3.344,-0.978 5.21,-1.525zM208.334,202.801c-0.282,0.167 -0.555,0.356 -0.859,0.579c-2.046,1.504 -4.332,4.399 -5.084,6.878c-1.032,3.405 -1.456,7.035 -1.251,10.642c0.153,2.699 0.694,5.378 0.789,8.076c0.149,4.196 1.613,8.053 2.809,11.97c0.577,1.893 1.932,3.434 3.934,3.938c3.807,0.96 7.281,0.456 9.7,-3.059c0.487,-0.708 0.926,-1.681 0.866,-2.493c-0.175,-2.364 -0.62,-4.71 -0.947,-7.063c-0.309,-2.227 -0.591,-4.458 -0.929,-6.68c-0.032,-0.209 -0.348,-0.454 -0.583,-0.538c-0.94,-0.338 -1.928,-0.552 -2.841,-0.948c-0.443,-0.192 -0.91,-0.623 -1.078,-1.059c-0.112,-0.291 0.22,-0.831 0.481,-1.156c0.965,-1.201 5.388,1.656 6.582,2.033c2.52,0.797 1.655,-0.748 1.036,-2.398c-0.796,-2.123 -1.125,-4.786 -1.029,-7.041c0.115,-2.718 -0.476,-5.535 0.69,-8.177c0.113,-0.258 0.154,-0.608 0.078,-0.871c-0.072,-0.249 -0.316,-0.596 -0.53,-0.633c-2.621,-0.446 -5.189,-0.803 -7.499,-2.3c-1.573,-1.02 -2.66,-0.687 -4.335,0.3zM217.634,173.465c0.053,4.052 1.44,7.687 3.254,11.187c0.584,1.129 1.489,1.357 2.509,0.639c4.449,-3.127 5.661,-7.88 7.386,-12.809c0.549,-1.568 1.006,-3.183 1.737,-4.679c0.505,-1.033 1.351,-2.232 -0.332,-2.478c-3.994,-0.584 -7.982,-0.313 -11.969,0.017c-1.214,0.1 -2.072,0.69 -2.173,2.016c-0.154,2.035 -0.276,4.071 -0.412,6.107zM268.564,165.292c0.832,0.753 1.51,1.496 2.31,2.067c3.119,2.229 4.624,5.516 5.627,9.003c0.679,2.364 1.317,4.527 3.632,5.851c1.886,1.078 4.081,0.55 4.402,-1.459c0.446,-2.782 0.363,-5.62 -0.288,-8.36c-0.406,-1.705 -0.389,-3.514 -0.939,-5.23c-0.44,-1.377 -1.047,-3.517 -2.346,-4.369c-1.847,-1.211 -5.332,0.207 -7.278,0.505c-1.801,0.278 -3.508,0.74 -5.12,1.992zM245.71,127.947c1.21,-0.356 3.209,-0.926 5.193,-1.547c0.29,-0.091 0.539,-0.398 0.75,-0.653c1.382,-1.67 1.296,-5.837 -0.139,-7.777c-1.849,-2.499 -4.379,-2.748 -7.178,-2.268c-2.689,0.462 -4.593,2.042 -5.471,4.48c-1.249,3.462 2.274,7.852 6.845,7.765zM238.286,202.309c-2.876,-0.939 -5.706,-1.789 -8.483,-2.789c-3.641,-1.311 -7.153,-2.927 -10.299,-5.219c-1.42,-1.035 -2.737,-2.211 -4.082,-3.346c-0.307,-0.259 -0.534,-0.614 -0.797,-0.926c-0.32,0.373 -0.72,0.703 -0.945,1.128c-1.037,1.959 -1.034,4.071 -1.003,6.238c0.03,2.073 1.132,3.528 2.71,4.193c1.912,0.807 4.093,1.195 6.181,1.303c3.409,0.174 6.838,0.026 10.257,-0.087c2.161,-0.07 4.316,-0.325 6.461,-0.495zM204.093,203.647c-0.269,-0.236 -0.593,-0.447 -0.823,-0.735c-1.434,-1.794 -2.929,-3.546 -4.239,-5.428c-0.948,-1.363 -1.766,-2.85 -2.412,-4.38c-0.736,-1.744 -1.598,-3.371 -2.952,-4.687c-0.916,-0.891 -2.14,-0.681 -2.629,0.494c-0.329,0.789 -0.61,1.718 -0.522,2.543c0.457,4.341 2.486,8.059 5.15,11.362c1.466,1.817 3.454,3.212 5.241,4.828c1.124,-1.409 2.126,-2.668 3.186,-3.997zM263.853,214.416c-0.111,0 -0.222,0 -0.333,-0.001c-0.434,1.1 -1.014,2.17 -1.253,3.313c-0.164,0.785 0.122,1.674 0.248,2.51c0.346,2.305 0.679,4.612 1.085,6.906c0.379,2.145 0.928,4.262 1.243,6.415c0.199,1.359 0.076,2.763 0.171,4.14c0.018,0.253 0.358,0.626 0.615,0.697c1.685,0.462 3.511,-0.483 3.737,-2.203c0.206,-1.58 0.2,-3.289 -0.182,-4.824c-0.929,-3.727 -2.094,-7.397 -3.238,-11.066c-0.618,-1.987 -1.39,-3.926 -2.093,-5.887zM219.875,226.261c0.338,2.817 0.73,5.418 0.942,8.035c0.194,2.393 0.164,4.805 0.314,7.204c0.021,0.351 0.51,0.971 0.746,0.954c0.757,-0.055 1.638,-0.159 2.217,-0.588c1.654,-1.229 2.393,-3.033 2.262,-5.061c-0.282,-4.356 -0.091,-8.755 -5.119,-10.273c-0.403,-0.122 -0.829,-0.169 -1.362,-0.271zM233.092,221.124c-0.094,-0.089 -0.188,-0.159 -0.282,-0.204c-0.836,-0.4 -2.829,0.469 -3.755,0.652c-1.233,0.245 -2.447,0.57 -3.667,0.873c-0.878,0.217 -1.806,0.137 -1.464,1.199c0.385,1.2 2.546,1.857 3.644,1.856c2.014,-0.002 4.108,0.235 6.094,-0.21c1.197,-0.268 1.319,-0.486 0.891,-1.598c-0.332,-0.861 -0.781,-1.923 -1.461,-2.568zM221.832,214.375c3.368,-0.496 6.444,-0.95 9.802,-1.444c0,-0.935 -0.011,-1.923 0.004,-2.913c0.012,-0.777 -0.283,-1.017 -1.088,-0.889c-1.353,0.215 -2.726,0.308 -4.094,0.429c-1.51,0.134 -3.022,0.243 -4.624,0.37c0,1.435 0,2.875 0,4.447zM222.425,216.33c-0.162,0.111 -0.284,0.254 -0.348,0.439c-0.227,0.657 0.04,3.318 0.687,3.742c0.757,0.493 2.836,-0.347 3.599,-0.583c1.728,-0.535 3.509,-0.745 5.265,-1.188c0.876,-0.221 0.929,-0.08 0.838,-1.086c-0.072,-0.803 -0.533,-1.528 -0.545,-2.341c0.001,0.067 -6.142,0.524 -6.592,0.567c-0.844,0.082 -2.227,-0.014 -2.904,0.45zM233.307,205.039c-2.589,-0.358 -5.467,-0.062 -8.087,-0.033c-0.65,0.008 -1.65,0.113 -2.158,0.593c-0.519,0.492 -0.587,1.347 -0.85,1.98c2.182,0.036 4.22,0.003 6.427,-0.184c0.96,-0.081 1.993,0.058 2.926,-0.236c0.404,-0.127 0.896,-0.32 1.199,-0.633c0.111,-0.114 0.835,-1.452 0.587,-1.482c-0.015,-0.001 -0.03,-0.003 -0.044,-0.005z" fill="#2a3d98" fill-rule="nonzero"/></g><g fill="#2a3d98" fill-rule="evenodd" stroke-width="1"><path d="M254.994,181.245c-1.46,2.37 -3.728,3.68 -6.481,3.822c-2.448,0.126 -4.34,-1.226 -5.743,-3.204c-0.535,-0.756 -2.2,-2.708 -1.673,-3.561c1.361,-2.202 3.482,2.473 3.982,3.03c1.45,1.615 3.534,1.588 5.265,0.423c1.442,-0.969 2.515,-2.199 2.856,-4.112c-0.453,-0.028 -0.887,-0.036 -1.318,-0.085c-0.82,-0.096 -1.408,-0.614 -1.281,-1.39c0.072,-0.437 0.712,-1.001 1.184,-1.108c1.312,-0.292 2.668,-0.439 4.013,-0.499c0.375,-0.017 1.024,0.409 1.1,0.736c0.114,0.488 0.007,1.255 -0.323,1.568c-0.655,0.621 -0.536,1.096 -0.148,1.736c1.938,3.191 6.619,2.991 8.469,-0.453c0.551,-1.024 0.764,-2.26 0.977,-3.427c0.15,-0.816 0.266,-1.347 1.294,-1.227c1.079,0.126 1.576,0.882 1.498,1.698c-0.455,4.73 -3.905,9.375 -9.738,7.762c-1.334,-0.368 -2.568,-1.104 -3.933,-1.709z"/><path d="M258.939,169.692c0.624,-0.564 1.854,-0.161 2.241,0.67c0.523,1.124 -0.192,2.657 -1.537,2.39c-0.979,-0.195 -1.182,-1.552 -1.049,-2.372c0.049,-0.309 0.174,-0.535 0.345,-0.688z"/><path d="M246.891,170.964c0.135,-0.756 0.42,-1.508 1.421,-1.536c0.759,-0.021 1.801,1.305 1.59,2.216c-0.1,0.432 -0.777,0.955 -1.251,1.024c-0.868,0.125 -1.777,-0.843 -1.76,-1.704z"/></g><path d="M253.45383,92.84033c1.55967,1.95383 -0.39416,3.51349 -0.39416,3.51349l-4.19783,1.57429c-4.91581,-2.30934 -8.63752,-5.17996 -12.93688,-8.46772c-0.70586,-0.53977 -8.09742,-6.15635 -8.43264,-6.5707c-1.93605,-2.39304 -2.25233,-5.72974 -3.33314,-8.61189c0,0 -0.03246,-0.08657 -0.06826,-0.23267c-4.71664,3.41213 -9.39571,6.88458 -14.09792,10.36009l-3.993,2.99477c0,0 -2,1.5 -3.5,-0.5c-1.5,-2 0.5,-3.5 0.5,-3.5l4.007,-3.00523c11.24162,-8.3091 22.35578,-16.59799 34.15081,-24.10392c0,0 2.10915,-1.34219 3.45134,0.76696c1.34219,2.10915 -0.76696,3.45134 -0.76696,3.45134c-5.42795,3.45415 -10.70975,7.07621 -15.92624,10.78994c0.65065,0.49182 0.92488,1.2231 0.92488,1.2231c0.91932,2.45153 0.98596,5.38069 2.66686,7.38811c1.99246,2.3795 4.9892,3.69306 7.45452,5.5783c4.01371,3.0693 7.41728,5.78195 12.01305,7.90812l-1.03492,-0.95055c0,0 1.95383,-1.55967 3.51349,0.39416z" fill="#66faff" fill-rule="nonzero" stroke-width="0.5"/><path d="M284.5,99.89999c-2.5,0 -2.5,-2.5 -2.5,-2.5l0.12829,-0.20943c-1.86706,-5.70818 -1.29659,-11.53737 -2.10341,-17.43874c-0.5803,-4.24453 -1.55801,-8.49836 -2.62573,-12.72008c-0.37823,0.40288 -0.78111,0.60432 -0.78111,0.60432l-1.35027,0.5317c-1.15115,1.11962 -2.11629,2.46964 -3.45344,3.35886c-1.00233,0.66656 -2.28859,0.75258 -3.40519,1.20221c-5.6002,2.25507 -11.40386,4.20374 -16.7911,6.90723c0,0 -2.23607,1.11803 -3.3541,-1.11803c-1.11803,-2.23607 1.11803,-3.3541 1.11803,-3.3541c7.12894,-3.55242 16.78091,-4.7555 22.35027,-10.5317l2.64973,-1.4683c0,0 0.98588,-0.49294 1.97569,-0.16957c-0.43544,-1.67073 -0.86958,-3.33428 -1.28302,-4.98802c0,0 -0.60634,-2.42536 1.81902,-3.0317c2.42536,-0.60634 3.0317,1.81902 3.0317,1.81902c1.82637,7.30548 4.0263,14.78996 5.04976,22.25451c0.75974,5.54105 0.07997,11.23365 1.89659,16.56126l0.12829,1.79057c0,0 0,2.5 -2.5,2.5z" fill="#66faff" fill-rule="nonzero" stroke-width="0.5"/><path d="M268.70943,95.02829c2.37171,-0.79057 3.16228,1.58114 3.16228,1.58114l0.93799,2.83386c0.0618,0.12335 0.12575,0.24737 0.19167,0.37202c1.3221,-0.27302 2.63773,-0.52703 3.89229,-0.84067c0,0 2.42536,-0.60634 3.0317,1.81902c0.60634,2.42536 -1.81902,3.0317 -1.81902,3.0317c-0.67362,0.16841 -1.46125,0.31106 -2.30872,0.4576c1.6713,2.49046 3.38612,5.04904 4.10713,7.43354c1.54391,5.10599 -0.23145,12.21004 -5.68029,14.07624c-1.49024,0.5104 -3.14929,0.12078 -4.72446,0.10727c-1.65339,-0.01418 -3.42139,0.42346 -4.95671,-0.1903c-4.95853,-1.98223 -5.29806,-9.88012 -4.36187,-14.26203c0.4187,-1.95975 0.5668,-4.10189 1.66879,-5.77567c1.56734,-2.38058 3.78891,-3.70929 6.25021,-4.58323l-0.97213,-2.8982c0,0 -0.79057,-2.37171 1.58114,-3.16228zM270.34705,105.47227c-1.81468,0.59558 -3.40976,1.47182 -4.28892,2.90036c-1.15377,1.87474 -1.34478,6.46651 -1.07686,8.7219c0.16749,1.40991 0.08091,3.72894 1.47544,3.99576c0.9983,0.19101 2.02697,-0.17695 3.04329,-0.1903c4.51171,-0.05929 5.00455,0.37864 5.49334,-4.65514c0.1019,-1.04939 0.43666,-2.16157 0.10191,-3.16135c-0.45574,-1.36114 -1.59137,-2.38957 -2.36524,-3.5985c-0.83855,-1.30998 -1.62878,-2.65113 -2.38296,-4.01273z" fill="#66faff" fill-rule="nonzero" stroke-width="0.5"/><path d="M325.52746,126.51313c-2.33549,0.94502 -4.67453,1.88096 -7.02613,2.77892c-1.58277,0.60438 -4.43774,0.64724 -4.5121,2.33985c-0.11145,2.53696 3.05781,2.2681 4.51078,2.2681c1.09243,0 2.22798,0.41715 3.27554,0.10727c1.02734,-0.3039 1.65992,-1.39011 2.62608,-1.85306c0.71795,-0.34401 1.71472,-0.01752 2.33061,-0.52198c0.70518,-0.57759 0.70994,-4.64725 -0.41188,-5.02805c-0.2579,-0.08754 -0.52328,-0.10827 -0.7929,-0.09105zM330.86022,124.35135c1.98315,3.1928 1.7854,8.22776 -0.59246,10.81641c-0.89203,0.97111 -2.49693,0.8746 -3.66939,1.47802c-1.18526,0.61002 -2.08971,1.78948 -3.37392,2.14694c-3.78207,1.05275 -10.15216,0.50944 -12.71123,-2.87525c-2.19142,-2.89843 -2.08937,-6.52849 0.76523,-8.96608c1.48006,-1.26384 3.56864,-1.55493 5.36591,-2.30174c1.20344,-0.50006 2.41067,-0.99189 3.62017,-1.4787c0.64299,-1.27097 2.23546,-1.27097 2.23546,-1.27097h0.94997c0.92677,-0.36729 1.85407,-0.73329 2.78122,-1.09941c-2.9676,-0.06351 -5.94798,-0.0951 -8.8448,0.14173c-3.28588,0.26863 -6.49818,0.9101 -9.68416,1.67775c-0.30743,0.63482 -0.93227,1.27993 -2.20223,1.27993c-0.60362,0 -1.0615,-0.14574 -1.40883,-0.36685c-1.66166,0.43356 -3.32101,0.87611 -4.98484,1.29221c0,0 -2.42536,0.60634 -3.0317,-1.81902c-0.60634,-2.42536 1.81902,-3.0317 1.81902,-3.0317c2.03423,-0.50837 4.06142,-1.0507 6.09334,-1.57017c2.44656,-2.3967 1.013,-7.57694 1.013,-11.00447c0,0 0,-2.5 2.5,-2.5c2.5,0 2.5,2.5 2.5,2.5c0,2.66063 0.65739,6.4626 0.35603,9.52167c2.18374,-0.43625 4.38668,-0.7799 6.62296,-0.96272c3.93446,-0.32165 8.01529,-0.1712 12.01996,-0.09431c0.24922,-1.1338 1.38302,-1.7007 1.38302,-1.7007l0.61803,1.23607c0,-4.81805 -0.06923,-9.51535 0.46313,-14.30666c0.17896,-1.61067 0.23078,-3.24092 0.54069,-4.83159c0.08618,-0.44234 1.04345,-1.0076 0.63335,-1.19445c-0.74973,-0.34159 -1.62027,0.39203 -2.44384,0.36956c-1.72195,-0.04697 -3.43609,-0.29492 -5.13555,-0.57629c-1.54567,-0.2559 -6.7298,-1.83978 -7.86325,-1.97931c-3.20731,-0.39484 -6.46302,0.01873 -9.69454,0.01873c0,0 -2.5,0 -2.5,-2.5c0,-2.5 2.5,-2.5 2.5,-2.5c0.38628,0 10.10551,-0.00588 10.30546,0.01873c2.7737,0.34146 5.37911,1.56744 8.13675,2.02069c1.58623,0.26072 9.33874,0.74253 10.42061,1.79328c1.15903,1.12568 0.62199,3.18989 0.63335,4.80555c0.00869,1.23498 -0.91831,7.34657 -1,9c-0.16222,3.28324 0.00383,6.5745 0.00383,9.86175l-0.52254,0.5l0.02247,0c0,0 2.5,-0.00007 2.50007,2.49993c0.00007,2.5 -2.49993,2.50007 -2.49993,2.50007l-1.53912,0.00004c0.50122,2.00767 -1.53247,2.82115 -1.53247,2.82115c-0.52298,0.20919 -1.0457,0.41936 -1.56825,0.63017z" fill="#66faff" fill-rule="nonzero" stroke-width="0.5"/></g></g></svg>