<svg version="1.1" xmlns="http://www.w3.org/2000/svg" xmlns:xlink="http://www.w3.org/1999/xlink" width="126.1583" height="192.77158" viewBox="0,0,126.1583,192.77158"><g transform="translate(-183.41921,-55.04147)"><g data-paper-data="{&quot;isPaintingLayer&quot;:true}" stroke="none" stroke-linecap="butt" stroke-linejoin="miter" stroke-miterlimit="10" stroke-dasharray="" stroke-dashoffset="0" style="mix-blend-mode: normal"><g fill-rule="evenodd" stroke-width="1"><path d="M246.82496,188.60001c-0.3,-0.075 -12.675,0.825 -12.675,0.825l-11.1,4.125l-6.45,3.675l-3.225,4.275l-2.625,3.45l-5.85,-1.725l-8.025,-4.95l-6.75,-6.675l-3.75,-6.675l-1.65,-7.95l0.6,-6.825l2.325,-7.05l3.6,-6.075l6.075,-5.4l8.1,-4.275l7.8,-1.65l7.8,-1.2l12.3,-0.225l9,1.575l7.95,2.775l8.475,5.775l5.936,7.8l2.861,7.125v6.3l-2.272,9.225l-3.45,4.35c0,0 -14.7,-0.525 -15,-0.6z" fill="#ffffff"/><path d="M246.79996,189.80001l10.4,7.7l8.877,2.6l4.423,1.2l6.7,0.9l4,-1.5l4.8,-2.6l2.8,-2.7l2.7,-0.8l2.7,1.2l1.1,3.4l-3.6,5.248l-6.6,4.452l-5.9,3.2l1.8,20.1l-1.4,8.3l-2.7,3.5l-5.5,0.1l-3.4,-1.1l-2.4,-3.8l-2.4,5l-4.5,1.9l-4.3,-0.4l-3.4,-1.3c0,0 -1.5,-5.1 -1.6,-5.4c-0.099,-0.3 -0.7,-7.8 -0.7,-7.8l0.6,-5.6h-5l-8.2,-0.7l1.7,7.5l-2.4,9.6l-3.6,2.7l-4.9,0.4l-2.2,-2l-4.3,2.6l-5.6,-0.4l-4.4,-3.6l-1.6,-4.9l-0.3,-6.8l-0.1,-9.5l1.4,-8.7l1.925,-7.9l1.35,-3.225l-5.775,-3.825l-2.85,-4.5l-1.275,-6.6l-1.05,-2.175l-4.65,3l-2.85,-1.95l-0.975,-8.925v-11.4l16.125,-0.075l2.925,0.825l2.325,-1.425c0,0 10.35,-0.75 10.575,-0.825c0.225,-0.075 9.45,1.275 9.675,1.275c0.225,0 5.625,1.425 5.625,1.425c0,0 14.25,-1.8 14.475,-1.8c0.225,0 3.975,0.9 3.975,0.9v15.45l-1.275,3.6c0,0 -4.875,-0.375 -5.1,-0.6c-0.225,-0.225 -4.35,-4.5 -4.35,-4.5l-2.1,9z" fill="#fcb322"/><path d="M266.79996,194.30001v2.9l-2.193,4.8l-5.107,1.6l-5.8,0.848h-6.8l-3.6,0.502l-1.2,4.45l-0.7,4.4l1.2,4.366l1.1,4.334l2,2.9l-7.7,-0.3l-1.8,-1.9l-2.1,-5.6c0,0 -0.5,-3.8 -0.5,-4.1c0,-0.3 0.9,-5.8 0.9,-5.8l1.2,-3.252l-3.5,-1.048l-4.8,-2.1l-1.8,-4.3l0.536,-2.5l1.264,-2.7l3.7,-1.8l14.1,-1.2c0,0 12.1,0.6 12.5,0.5c0.4,-0.1 5.8,1.9 5.8,1.9z" fill="#71cbd2"/><path d="M234.52496,115.70001l2.7,3.3v4.8c0,0 -2.25,4.2 -2.475,4.275c-0.225,0.075 -5.025,1.875 -5.025,1.875l-4.875,-0.375l-2.625,-2.55l-1.2,-3.9l0.9,-3.825l3.15,-3.675l6.675,-0.975z" fill="#ef463c"/></g><g fill="#2a3d98" stroke-width="1"><path d="M265.77995,242.22601c-0.608,2.127 -2.187,3.259 -3.888,4.47c-1.977,1.41 -4.015,1.09 -6.106,1.077c-0.458,-0.002 -0.918,-0.186 -1.374,-0.175c-2.18,0.051 -3.941,-1.082 -4.674,-2.843c-0.962,-2.313 -1.922,-4.668 -2.193,-7.304c-0.329,-3.214 -0.497,-6.374 -0.169,-9.58c0.03,-0.294 -0.449,-0.905 -0.718,-0.921c-2.051,-0.124 -4.109,-0.123 -6.163,-0.19c-0.744,-0.025 -1.486,-0.13 -2.373,-0.212c0.077,0.007 0.373,2.62 0.408,2.874c0.328,2.38 0.178,4.81 -0.251,7.167c-0.407,2.24 -0.939,4.377 -2.299,6.227c-0.7,0.952 -1.256,1.876 -2.231,2.594c-2.07,1.523 -5.07,1.417 -7.452,0.797c-0.915,-0.237 -1.258,-0.695 -1.716,-1.483c-1.347,0.875 -2.801,1.582 -4.38,1.98c-0.882,0.221 -1.773,0.188 -2.686,0.188c-2.089,0 -3.834,-0.462 -5.451,-1.815c-1.41,-1.179 -2.482,-2.725 -3.265,-4.378c-0.553,-1.171 -0.973,-2.403 -1.29,-3.657c-0.369,-1.462 -0.316,-2.962 -0.333,-4.461c-0.013,-1.104 0.001,-2.208 0.001,-3.312c0,-3.609 0.094,-7.219 0.388,-10.815c0.077,-0.945 0.121,-1.875 0.354,-2.781c0.246,-0.957 0.186,-1.969 0.42,-2.934c0.252,-1.038 0.391,-2.086 0.593,-3.138c0.146,-0.762 0.283,-1.537 0.547,-2.271c0.076,-0.212 0.474,-0.807 0.364,-1.001c-0.113,-0.197 -0.831,-0.254 -1.039,-0.298c-0.361,-0.077 -0.75,-0.122 -1.113,-0.212c-0.859,-0.21 -1.77,-0.72 -2.585,-1.078c-0.966,-0.425 -1.918,-0.888 -2.809,-1.456c-2.336,-1.484 -4.666,-2.996 -6.869,-4.668c-2.904,-2.205 -5.146,-5.044 -7.143,-8.079c-0.25,-0.379 -0.702,-0.63 -0.933,-1.016c-1.81,-3.023 -3.187,-6.207 -3.669,-9.742c-0.426,-3.133 -0.358,-6.88 0.366,-9.969c0.436,-1.861 0.738,-3.785 1.427,-5.565c0.683,-1.762 1.438,-3.488 2.346,-5.147c0.838,-1.53 1.648,-2.642 2.909,-3.908c2.503,-2.512 5.422,-4.603 8.586,-6.202c3.97,-2.007 8.22,-3.406 12.551,-4.392c2.135,-0.487 4.29,-0.875 6.455,-1.194c1.977,-0.293 3.948,-0.205 5.916,-0.442c0.916,-0.11 1.906,-0.245 2.848,-0.332c0.095,-2.162 0.421,-4.26 0.4,-6.444c-0.011,-1.088 -0.11,-2.174 -0.114,-3.261c-0.005,-1.311 -0.797,-2.283 -2.404,-2.727c-2.613,-0.723 -5.466,-4.201 -5.576,-7.414c-0.08,-2.352 1.079,-3.772 2.191,-5.428c1.79,-2.664 4.63,-3.818 7.477,-4.077c3.11,-0.282 6.255,0.677 8.244,3.491c1.135,1.605 1.368,3.532 1.047,5.484c-0.211,1.289 -0.341,2.611 -0.73,3.848c-0.635,2.023 -2.139,3.409 -3.973,4.331c-1.089,0.547 -2.35,0.752 -3.74,1.174c0,3.487 0,7.241 0,11.067c4.161,-0.187 8.113,0.241 11.949,1.322c2.415,0.681 4.742,1.694 7.072,2.646c1.896,0.776 3.828,1.533 5.578,2.576c1.584,0.945 3.081,2.129 4.37,3.449c2.004,2.052 4.19,4.084 5.594,6.529c2.383,4.15 4.831,8.457 4.741,13.462c-0.048,2.661 -0.671,5.321 -1.144,7.962c-0.542,3.024 -2.117,5.612 -3.732,8.163c-0.165,0.26 -0.52,0.399 -0.886,0.667c1.768,0.941 3.488,1.789 4.4,3.703c0.926,1.945 -0.021,3.792 0,5.732c2.412,0.664 4.806,1.537 7.277,1.942c2.505,0.412 4.995,-0.29 7.117,-1.642c2.05,-1.307 3.826,-3.037 5.828,-4.43c0.75,-0.521 1.783,-0.679 2.713,-0.881c0.614,-0.135 1.274,-0.049 1.913,-0.063c2.634,-0.06 4.357,1.859 4.156,4.486c-0.217,2.817 -1.873,4.835 -3.695,6.704c-2.697,2.765 -6.019,4.661 -9.488,6.293c-0.753,0.355 -1.581,0.551 -2.592,0.893c0.213,2.272 0.388,4.585 0.652,6.887c0.635,5.555 1.281,11.116 0.377,16.691c-0.336,2.079 -0.872,4.15 -1.554,6.144c-0.897,2.621 -4.424,4.514 -7.397,4.425c-3.133,-0.095 -5.148,-1.996 -7.378,-4.107zM247.91296,187.43901c0.233,0.025 0.525,0.069 0.819,0.084c3.33,0.17 6.72,0.011 9.97,0.61c2.332,0.431 3.292,-0.908 4.168,-2.215c1.769,-2.638 2.588,-5.701 3.208,-8.819c0.759,-3.823 0.304,-7.476 -1.113,-11.06c-0.449,-1.135 -0.637,-2.422 -1.284,-3.42c-1.28,-1.975 -2.662,-3.92 -4.25,-5.65c-1.658,-1.807 -3.519,-3.458 -5.449,-4.979c-3.58,-2.82 -7.972,-4.038 -12.197,-5.319c-4.79,-1.451 -9.83,-1.857 -14.886,-1.392c-2.611,0.241 -5.245,0.263 -7.849,0.558c-4.344,0.493 -8.967,1.005 -13.018,2.724c-1.611,0.683 -3.114,1.42 -4.701,2.175c-1.748,0.833 -3.539,1.673 -5.1,2.83c-0.66,0.489 -1.214,1.094 -1.802,1.663c-1.095,1.062 -1.894,2.307 -2.859,3.471c-1.112,1.34 -2.085,2.802 -2.811,4.388c-1.535,3.359 -2.659,6.686 -3.006,10.452c-0.605,6.568 1.84,13.895 7.12,19.222c2.413,2.436 4.777,4.846 7.748,6.668c3.138,1.924 6.22,3.821 9.939,4.139c0.494,-0.69 0.971,-1.355 1.566,-2.184c-3.597,-2.002 -6.747,-4.595 -8.278,-8.499c-0.533,-1.36 -0.926,-2.75 -1.379,-4.138c-0.354,-1.083 -0.716,-2.049 -0.745,-3.185c-0.377,0.209 -0.579,0.618 -0.921,0.875c-0.369,0.277 -0.789,0.483 -1.224,0.633c-0.831,0.288 -1.749,0.387 -2.621,0.264c-1.684,-0.237 -2.829,-1.525 -3.518,-2.999c-0.713,-1.524 -1.064,-3.281 -1.255,-4.969c-0.218,-1.935 -0.076,-3.911 -0.091,-5.869c-0.01,-1.319 -0.097,-2.636 -0.141,-3.953c-0.066,-1.927 -0.55,-4.712 1.187,-6.112c0.362,-0.291 0.884,-0.559 1.322,-0.718c1.638,-0.595 3.722,0.125 5.411,0.186c1.866,0.068 3.748,-0.239 5.611,-0.148c0.908,0.043 1.8,0.076 2.693,0.163c0.992,0.096 1.977,-0.085 2.973,0.101c0.501,0.094 1.437,0.414 1.73,0.819c0.394,-0.329 0.868,-0.587 1.313,-0.866c0.55,-0.345 1.336,-0.417 1.962,-0.558c0.666,-0.151 1.334,-0.355 2.016,-0.429c3.819,-0.411 7.664,-1.045 11.52,-0.304c1.848,0.354 3.704,0.676 5.542,1.08c1.284,0.283 2.467,0.825 3.737,1.221c0.363,0.112 0.826,0.25 1.203,0.262c0.462,0.015 0.164,0.045 0.515,-0.174c0.706,-0.439 1.189,-0.697 2.129,-0.791c0.571,-0.058 1.095,-0.157 1.681,-0.157c0.881,0 1.636,-0.05 2.493,-0.142c0.997,-0.107 2.002,-0.249 3.005,-0.267c1.795,-0.033 3.54,-0.185 5.342,-0.189c0.999,-0.002 2.112,0.023 2.976,0.443c1.835,0.894 2.153,2.879 2.335,4.598c0.315,2.969 0.332,5.981 0.297,8.972c-0.02,1.811 -0.199,3.661 -0.631,5.414c-0.33,1.339 -0.841,2.869 -2.661,3.015c-0.639,0.052 -1.29,-0.042 -1.936,-0.079c-2.216,-0.124 -4.03,-0.968 -5.243,-2.912c-0.251,-0.404 -0.577,-0.76 -0.987,-1.289c-0.553,2.377 -1.05,4.498 -1.575,6.755zM278.50595,213.29801c-2.356,0 -4.313,0.076 -6.262,-0.024c-1.126,-0.058 -2.513,0.05 -3.55,-0.48c-0.746,-0.382 -1.941,-1.382 -1.542,-2.311c0.327,-0.764 1.848,-0.467 2.449,-0.299c3.545,0.989 7.09,0.683 10.538,-0.298c1.866,-0.532 3.615,-1.541 5.35,-2.46c3.461,-1.835 6.526,-4.148 8.512,-7.64c0.528,-0.927 0.726,-1.846 0.166,-2.887c-0.437,-0.815 -0.978,-1.556 -1.894,-1.396c-0.966,0.168 -1.962,0.568 -2.777,1.118c-2.08,1.409 -3.979,3.102 -6.117,4.407c-2.182,1.332 -4.473,2.483 -7.222,2.376c-1.487,-0.057 -3.146,-0.076 -4.547,-0.628c-1.08,-0.426 -2.196,-0.486 -3.273,-0.888c-0.343,-0.128 -0.898,-0.733 -1.173,-0.777c-0.601,-0.095 -0.724,0.533 -1.11,0.928c-2.823,2.897 -7.425,2.625 -11.143,3.047c-1.421,0.162 -2.831,0.453 -4.256,0.54c-1.752,0.106 -3.526,-0.045 -5.266,0.135c-0.66,0.069 -1.488,0.613 -1.825,1.185c-0.475,0.806 -0.678,1.823 -0.799,2.776c-0.352,2.762 -0.418,5.618 0.357,8.318c0.563,1.96 2.098,6.382 4.593,6.566c0.637,0.047 1.196,-0.35 1.804,0.032c0.507,0.32 0.653,0.946 0.676,1.505c0.078,1.816 -0.676,3.598 -0.563,5.448c0.224,3.63 0.333,7.262 2.02,10.567c0.508,0.995 1.343,2.059 2.305,2.537c1.733,0.861 3.744,0.718 5.587,0.267c2.378,-0.583 3.435,-2.554 4.119,-4.71c0.859,-2.706 0.089,-5.465 0.059,-8.187c-0.026,-2.264 -0.569,-4.503 -0.266,-6.822c0.102,-0.781 0.301,-1.541 1.17,-1.697c0.791,-0.142 1.824,0.062 2.078,0.899c0.47,1.544 0.087,3.367 0.225,4.96c0.093,1.065 0.098,2.106 0.151,3.17c0.096,1.897 0.563,3.75 0.662,5.646c0.133,2.505 2.144,4.251 4.48,4.921c1.578,0.453 3.596,0.525 4.695,-0.887c1.215,-1.562 2.111,-3.65 2.389,-5.612c0.574,-4.059 1.001,-8.16 0.352,-12.31c-0.568,-3.615 -0.775,-7.287 -1.152,-11.035zM243.01296,187.83001c0.829,0.106 1.722,0.232 2.229,-0.554c0.24,-0.373 0.31,-0.87 0.438,-1.288c0.219,-0.717 0.514,-1.415 0.663,-2.153c0.315,-1.548 0.575,-3.123 0.575,-4.708c0,-0.696 0.027,-1.469 -0.302,-2.082c-0.324,-0.606 -0.887,-1.044 -1.245,-1.626c-0.572,-0.931 -1.093,-1.893 -1.645,-2.834c-1.041,-1.775 -1.669,-4.223 -3.545,-5.328c-1.061,-0.625 -1.94,-1.338 -3.14,-1.687c-1.707,-0.495 -3.416,-0.879 -5.146,-1.272c-1.973,-0.449 -3.941,-0.621 -5.96,-0.62c-1.687,0 -3.358,0.135 -5.043,0.194c-1.078,0.037 -2.102,0.126 -3.175,0.237c-1.578,0.165 -3.545,0.706 -4.327,2.26c-0.767,1.524 -1.348,3.135 -2.2,4.619c-1.399,2.434 -2.955,4.778 -4.41,7.181c-0.937,1.547 -2.436,3.392 -2.49,5.243c-0.095,3.22 -0.039,5.838 1.466,8.786c1.104,2.163 2.787,5.049 5.025,6.199c0.558,0.288 1.2,0.547 1.815,0.681c0.937,0.206 1.447,0.203 2.072,-0.571c0.618,-0.766 1.57,-1.345 2.422,-1.815c1.158,-0.639 2.221,-1.346 3.522,-1.695c1.206,-0.323 2.367,-0.867 3.616,-1.006c0.689,-0.077 0.727,0.008 0.974,-0.636c0.28,-0.732 0.567,-1.279 1.21,-1.807c2.094,-1.721 5.033,-2.983 7.745,-3.248c1.603,-0.157 3.19,-0.256 4.802,-0.322c1.112,-0.046 2.23,-0.228 3.342,-0.213c0.224,0.003 0.466,0.033 0.712,0.065zM235.42596,224.01301c0.046,-0.122 0.091,-0.244 0.138,-0.366c-3.982,-6.087 -3.134,-12.477 -1.1,-18.771c0.048,-0.149 -2.74,-0.948 -3.001,-1.032c-0.454,-0.144 -0.903,-0.255 -1.353,-0.374c-0.449,-0.117 -0.781,-0.41 -1.206,-0.588c-0.804,-0.337 -1.658,-0.803 -2.355,-1.392c-0.65,-0.547 -1.421,-1.321 -1.854,-2.049c-0.805,-1.354 -0.241,-3.474 -2.302,-2.976c-2.491,0.602 -4.852,1.808 -6.527,3.773c-0.588,0.69 -1.021,1.488 -1.588,2.186c-2.167,2.667 -3.155,5.972 -3.694,9.315c-0.269,1.673 -0.441,3.361 -0.643,5.042c-0.099,0.825 -0.341,1.721 -0.338,2.549c0.004,0.839 0.083,1.68 0.056,2.534c-0.07,2.137 -0.207,4.271 -0.212,6.409c-0.003,1.793 -0.057,3.651 0.097,5.423c0.139,1.591 0.195,3.288 0.804,4.717c1.3,3.052 3.713,5.137 6.802,6.372c1.216,0.486 3.426,-0.261 4.44,-0.962c0.591,-0.409 1.06,-1.381 1.419,-2.003c0.476,-0.824 0.74,-1.742 0.828,-2.687c0.081,-0.882 0.152,-1.749 0.152,-2.641c0,-0.713 -0.022,-1.415 0.076,-2.12c0.193,-1.396 0.095,-2.813 0.112,-4.232c0.02,-1.62 0.041,-3.24 0.041,-4.86c0,-0.682 -0.143,-1.365 -0.239,-2.209c-0.351,-0.16 -0.906,-0.308 -1.327,-0.63c-0.556,-0.427 -1.226,-0.933 -0.756,-1.793c0.42,-0.77 1.092,-0.711 1.752,-0.332c0.768,0.441 1.456,1.13 2.276,1.354c3.147,0.859 6.332,1.574 9.502,2.343zM255.69896,203.00101c-2.048,-1.825 -1.904,-4.131 -1.985,-6.389c-0.089,-2.49 1.332,-4.311 2.837,-6.235c-2.581,-0.209 -4.96,-0.581 -7.33,-0.535c-1.818,0.036 -3.62,0.305 -5.473,0.245c-2.461,-0.081 -4.928,-0.051 -7.38,0.168c-2.157,0.195 -4.187,0.197 -6.126,1.333c-0.75,0.439 -1.536,0.745 -2.139,1.362c-0.597,0.611 -1.31,1.423 -1.628,2.231c-0.285,0.724 -0.163,1.598 -0.163,2.364c0,0.991 0.234,1.414 0.917,2.157c0.557,0.603 1.195,1.067 1.948,1.384c0.695,0.291 1.233,0.857 1.935,1.163c0.669,0.292 1.411,0.332 2.079,0.592c0.767,0.299 1.537,0.478 2.363,0.574c2.746,0.322 5.507,0.153 8.245,0.153c3.246,0 6.493,-0.146 9.74,-0.249c0.688,-0.023 1.371,-0.197 2.16,-0.318zM194.68196,165.03301c-0.104,1.041 -0.268,1.964 -0.269,2.887c-0.003,1.382 0.304,2.788 0.13,4.14c-0.385,3.006 0.213,5.948 0.366,8.915c0.047,0.917 0.541,1.842 0.956,2.704c0.51,1.057 2.478,1.634 3.303,0.861c1.23,-1.152 2.449,-2.397 3.333,-3.814c1.1,-1.765 1.735,-3.815 2.786,-5.616c1.732,-2.967 3.636,-5.835 5.5,-8.799c-0.558,-0.369 -0.827,-0.701 -1.111,-0.713c-4.963,-0.211 -9.927,-0.382 -14.994,-0.565zM242.70396,166.16501c0.367,0.817 0.543,1.339 0.82,1.801c1.269,2.126 2.429,4.336 3.89,6.325c1.889,2.571 3.961,5.017 6.082,7.405c1.347,1.514 3.582,0.795 4.131,-1.126c0.68,-2.382 0.846,-4.803 0.817,-7.256c-0.019,-1.56 0.02,-3.123 -0.052,-4.68c-0.032,-0.674 -0.246,-1.347 -0.438,-2.004c-0.387,-1.326 -1.096,-1.731 -3.385,-1.63c-2.543,0.112 -5.083,0.351 -7.619,0.587c-1.338,0.125 -2.666,0.359 -4.246,0.578zM226.89096,224.29601c-0.108,-0.022 -0.216,-0.045 -0.324,-0.067c0.025,2.884 0.339,5.68 0.301,8.563c-0.04,3.087 -0.219,6.194 -0.946,9.206c-0.214,0.885 0.175,1.332 0.996,1.6c3.286,1.073 6.88,-0.726 7.902,-4.025c1.314,-4.244 1.359,-8.536 0.32,-12.838c-0.077,-0.322 -0.418,-0.759 -0.707,-0.822c-2.518,-0.558 -5.03,-1.098 -7.542,-1.617zM222.00996,123.29401c-0.313,1.57 0.694,2.85 1.863,3.727c2.061,1.547 4.644,1.436 7.099,1.589c0.239,0.014 0.5,-0.078 0.727,-0.177c2.659,-1.165 4.656,-5.227 4.018,-8.151c-0.579,-2.652 -3.502,-4.66 -6.191,-4.116c-1.132,0.229 -2.193,0.796 -3.297,1.18c-2.563,0.89 -4.158,3.063 -4.219,5.948zM265.65296,196.23201c0.175,-2.074 -1.083,-4.369 -3.205,-4.564c-2.207,-0.203 -4.357,0.108 -5.732,1.971c-1.111,1.503 -1.459,3.249 -0.946,5.057c0.627,2.212 3.345,4.09 5.167,3.571c2.884,-0.822 4.449,-2.863 4.716,-6.035zM237.03796,205.36101c-0.062,0 -0.109,0.003 -0.138,0.01c-1.132,0.289 -1.237,2.305 -1.437,3.247c-0.138,0.657 -0.234,1.102 -0.333,1.746c-0.162,1.064 0.48,0.765 1.314,0.777c0.305,0.005 3.762,0.438 3.772,0.38c0.342,-2 0.656,-3.836 0.982,-5.739c-0.031,0.181 -3.36,-0.416 -4.16,-0.421zM240.24896,213.46001c-0.793,-0.509 -2.613,-0.223 -3.403,-0.297c-0.411,-0.039 -1.108,-0.106 -1.5,0c-0.608,0.163 -0.479,0.148 -0.526,0.816c-0.069,0.98 -0.045,2.265 0.223,3.197c0.43,1.495 4.796,0.922 5.941,0.822c-0.771,-1.319 0.25,-2.912 -0.443,-4.231c-0.066,-0.126 -0.166,-0.226 -0.292,-0.307zM235.81096,221.00001c0.253,0.787 0.84,1.507 1.338,2.104c0.86,1.033 1.052,1.12 2.417,1.234c0.667,0.056 1.339,0.034 2.01,0.034c0.726,0 1.459,0.02 2.181,-0.008c-0.665,-0.861 -1.242,-1.586 -1.794,-2.549c-0.393,-0.687 -0.713,-1.675 -1.542,-1.91c-1.365,-0.387 -3.269,-0.214 -4.68,-0.142c-0.099,0.425 -0.057,0.839 0.07,1.237z" fill-rule="nonzero"/><path d="M267.45796,216.02401c0.092,0.344 0.116,0.687 0.059,0.933c-0.134,0.571 -0.492,1.069 -1.095,1.189c-0.965,0.194 -1.889,-1.127 -1.81,-2.006c0.062,-0.689 0.735,-1.2 1.344,-1.408c0.751,-0.255 1.297,0.524 1.502,1.292z" fill-rule="evenodd"/></g><path d="M227.34565,89.39726c-1.38675,2.08012 -3.46688,0.69338 -3.46688,0.69338l-2.47926,-1.65865c-1.73504,-0.91048 -3.74947,-1.44813 -5.70837,-1.40307c0,0 -1.58594,0 -2.23149,-1.26317c-0.94404,1.26368 -1.84142,2.5333 -2.71705,3.72504l-1.98768,2.0283c0,0 -1.76777,1.76776 -3.53554,0c-1.76776,-1.76776 0,-3.53553 0,-3.53553l1.49392,-1.4533c4.60013,-6.26079 9.30531,-12.78598 17.07548,-14.87146c0,0 2.42536,-0.60634 3.0317,1.81901c0.60634,2.42535 -1.81902,3.03169 -1.81902,3.03169c-3.3934,0.76194 -6.14283,2.92912 -8.5306,5.5512c2.56683,0.16599 5.1282,0.93021 7.43829,2.04675l2.74313,1.82295c0,0 2.08013,1.38675 0.69338,3.46688z" fill="#ff0000" fill-rule="nonzero" stroke-width="0.5"/><path d="M248.79326,100.16912c1.76776,1.76776 0,3.53553 0,3.53553l-3.12274,3.02816c-0.32298,0.91955 -0.33213,2.02081 -0.96892,2.75864c-1.18172,1.36924 -2.85659,2.21922 -4.28489,3.32883c-5.1995,2.05398 -11.6062,3.15501 -17.29245,2.02911c-1.51576,-0.30012 -3.37006,-0.59853 -4.23884,-1.87635c-2.27399,-3.34459 0.94369,-8.20988 3.52126,-9.79063c2.67025,-1.63759 7.04648,0.88546 9.72284,-0.06826c2.34841,-0.83685 1.89435,-4.24019 2.00219,-6.98502c-0.10931,0.07089 -0.21757,0.14298 -0.32451,0.21659l-1.06214,0.7081c0,0 -0.65801,0.43867 -1.48058,0.45248c-2.01227,1.36529 -4.43579,2.09209 -6.62172,3.18506c0,0 -2.23607,1.11803 -3.35411,-1.11804c-1.11803,-2.23607 1.11803,-3.3541 1.11803,-3.3541c2.20169,-1.10085 4.68099,-1.7565 6.61945,-3.27363c1.43907,-1.12629 2.25945,-3.16636 3.98666,-3.76319c0.74761,-0.25834 1.62505,-0.42361 2.48307,-0.42068c1.19,-2.14339 1.26675,-5.33605 1.40678,-7.47724c0.38683,-5.91518 0.65965,-11.71982 0.65965,-17.64514c0,0 0,-2.5 2.5,-2.5c2.5,0 2.5,2.5 2.5,2.5c0,6.03417 -0.26193,11.95444 -0.67073,17.97774c-0.23501,3.46268 -0.61012,7.69131 -2.74943,10.68152c-0.0078,0.89536 -0.12643,1.84193 -0.06144,2.6751c0.34925,4.47753 -0.42476,10.48259 -5.01201,12.74911c-0.47378,0.23409 -6.52686,0.21986 -7.06237,0.19568c-0.79194,-0.03576 -1.64783,-0.60479 -2.36356,-0.26393c-0.73646,0.35074 -0.88515,1.37107 -1.35753,2.0361c-0.0959,0.13501 -0.49997,0.30429 -0.3436,0.35885c1.75792,0.61342 3.72124,-0.16058 5.58309,-0.16782c1.23466,-0.0048 2.46936,-0.00953 3.70399,0c1.97045,0.01521 3.91327,-0.67732 5.73838,-1.42021c1.51273,-1.06951 2.89631,-2.58942 3.45018,-4.35731l3.84045,-3.93503c0,0 1.76777,-1.76776 3.53554,0z" fill="#ff0000" fill-rule="nonzero" stroke-width="0.5"/><path d="M284.13076,93.09878c1.00452,2.28931 -1.2848,3.29383 -1.2848,3.29383l-3.31436,1.44079c-0.32797,0.07228 -9.95114,2.20221 -10.27523,2.23712c-4.93246,0.53121 -10.30279,0.01437 -15.2677,0.01437c0,0 -2.5,0 -2.5,-2.5c0,-2.5 2.5,-2.5 2.5,-2.5c2.75716,0 5.64927,0.17478 8.51504,0.22498l-0.57026,-0.33617c0,-6.32918 0,-12.65837 0,-18.98755c-1.77729,0.35111 -3.55633,0.57983 -5.33359,0.59798c0,0 -2.5,0 -2.5,-2.5c0,-2.5 2.5,-2.5 2.5,-2.5c1.87088,0.02473 3.7043,-0.4788 5.51117,-1.04242c0.25121,-0.71072 0.85779,-1.56878 2.32242,-1.56878c0.71057,0 1.21918,0.20197 1.58322,0.49108c2.81146,-0.66622 7.63961,-1.8051 7.82926,-1.84987l3.79141,-1.14574c0,0 2.39333,-0.72249 3.11581,1.67085c0.05263,0.17435 0.08873,0.33982 0.11042,0.4968c1.01047,0.81055 0.85136,2.24255 0.85136,2.24255c-0.4728,4.25525 -0.88637,8.48524 -1.27897,12.74785c-0.17351,1.88392 0.12318,3.88484 -0.56378,5.6476c-0.59447,1.52542 -1.76338,2.73933 -2.81872,4.01483c0.31074,-0.07321 0.6219,-0.14388 0.93366,-0.21097l2.84978,-1.26394c0,0 2.28931,-1.00451 3.29383,1.2848zM269.20302,92.8526l3.67831,-2.24079c0.76842,-1.02757 1.88405,-1.87072 2.30525,-3.08273c0.47337,-1.36212 0.16114,-2.87969 0.26668,-4.31785c0.27493,-3.74667 0.68723,-7.46568 1.10375,-11.19463l-1.41295,0.4261c-2.71562,0.64248 -5.45695,1.52075 -8.2106,2.3033c0,5.95006 0,11.90011 0,17.85017c0.48465,0.13983 1.0863,0.43931 1.44042,1.08072c0.35945,-0.53127 0.82914,-0.82429 0.82914,-0.82429z" fill="#ff0000" fill-rule="nonzero" stroke-width="0.5"/><path d="M302.73102,104.43689c-2.5,0 -2.5,-2.5 -2.5,-2.5v-1.7408c0.00714,-6.75013 0.66324,-13.51923 1.50354,-20.27986l-0.22799,-0.27039c-2.59684,1.72918 -5.25597,3.30616 -7.87677,4.98459c-0.49002,4.41017 -0.98004,8.82036 -1.47006,13.23053l-3.27767,-0.75386l-1.69175,0.2017c0.02134,-0.19203 0.04267,-0.38405 0.06401,-0.57608l-0.0793,-0.01824c0,0 0,-0.44543 0.18802,-0.96026c0.39259,-3.53333 0.78518,-7.06667 1.17778,-10.6c-0.02539,-0.03522 -0.05057,-0.07153 -0.07553,-0.10896c-1.08237,-1.62355 -0.05275,-2.8247 0.45139,-3.27378c0.87521,-7.87687 1.75041,-15.75374 2.62562,-23.63061c0,0 0.27608,-2.48472 2.76079,-2.20864c2.48471,0.27608 2.20863,2.76079 2.20863,2.76079c-0.72589,6.53305 -1.45179,13.06612 -2.17768,19.59917c1.47481,-0.91687 2.94719,-1.8375 4.39902,-2.8066l3.12755,-0.41988c0,0 0.20359,0 0.49457,0.05809c0.7953,-5.95995 1.64846,-11.90823 2.24023,-17.82602c0,0 0.24876,-2.48759 2.73635,-2.23884c2.48759,0.24876 2.23883,2.73635 2.23883,2.73635c-1.40335,14.03351 -4.35575,28.27805 -4.33958,42.40079v1.7408c0,0 0,2.5 -2.5,2.5z" fill="#ff0000" fill-rule="nonzero" stroke-width="0.5"/></g></g></svg>