<svg version="1.1" xmlns="http://www.w3.org/2000/svg" xmlns:xlink="http://www.w3.org/1999/xlink" width="133.89728" height="145.71387" viewBox="0,0,133.89728,145.71387"><g transform="translate(-175.92725,-101.17046)"><g data-paper-data="{&quot;isPaintingLayer&quot;:true}" fill-rule="nonzero" stroke="none" stroke-linecap="butt" stroke-linejoin="miter" stroke-miterlimit="10" stroke-dasharray="" stroke-dashoffset="0" style="mix-blend-mode: normal"><g stroke-width="1"><path d="M256.274,203.836h-8.931l-5.92,-0.802l-14.549,-4.306l-3.01,-1.302l-3.713,-1.903l-5.217,-5.308l-3.613,-5.642l-2.307,-7.978l0.903,-7.166l1.304,-8.057l7.024,-8.312l6.522,-5.007l6.221,-2.504l8.228,-2.504l6.422,-0.501h10.199l9.367,1.402l9.633,3.105l7.425,4.507l6.823,8.713l1.806,4.907l1.405,7.658l-1.004,6.063l-2.107,5.674l-4.314,6.744l-6.121,5.008l-7.526,4.406c0,0 -7.424,2.203 -7.826,2.404c-0.402,0.2 -7.124,0.701 -7.124,0.701z" fill="#ffffff"/><path d="M254.167,119.009v3.605c0,0 -3.01,4.106 -3.512,4.106c-0.503,0 -4.372,1.602 -4.372,1.602l-4.86,-1.402l-2.207,-2.603l-0.803,-2.604l0.703,-3.405l1.103,-2.203l3.412,-1.603h3.813l3.211,0.902z" fill="#ef463c"/><path d="M282.664,162.975l1.305,3.005l1.906,15.123l-1.003,2.002l-4.014,-0.4l-3.913,-3.705l-0.903,5.573l-3.211,8.347l-4.415,6.009l-3.311,3.205l0.702,1.702l0.602,5.509l0.201,9.013l-0.903,6.11l-1.906,0.801l3.311,4.506l2.709,4.407l0.1,3.305l-2.308,4.306l-3.913,1.402l-3.599,-0.4l-2.321,0.2l-3.613,1.002c0,0 -4.715,-1.302 -5.116,-1.603c-0.401,-0.3 -1.706,-2.904 -1.706,-2.904l-1.054,-3.506l1.637,-3.805l-5.583,-10.215l-14.667,1.402l-4.414,-0.501l-1.606,5.809l2.006,3.705l3.211,4.707l0.101,4.407l-2.81,2.504l-5.318,1.301l-4.014,-1.602l-4.917,2.103l-4.515,-2.003l-2.408,-3.705c0,0 -0.502,-3.205 -0.502,-3.506c0,-0.3 0.502,-1.902 0.502,-1.902l0.903,-1.904l-3.311,-6.109l-2.509,-6.309l-0.401,-7.011l2.006,-5.208l-3.311,-1.802l-4.816,-0.701l-4.716,1.001l-5.72,3.405h-3.812c0,0 -0.101,-2.904 0,-3.405c0.1,-0.501 1.204,-3.605 1.204,-3.605l3.111,-3.505l5.016,-0.801l6.924,-0.101l9.331,3.406l7.024,-2.805l3.914,2.604l6.221,2.604l14.494,-0.601l4.771,-0.4l4.616,-0.101l2.809,0.101l-1.906,-2.003l-5.118,-3.405l-6.823,-7.312l-2.509,-5.007l-1.404,-4.607c0,0 -8.73,6.61 -9.031,6.51c-0.301,-0.1 -1.305,-2.003 -1.305,-2.003l-2.006,-14.207v-5.022l2.006,-2.203l13.446,0.6l2.454,0.801l2.262,-1.502l7.526,-2.003l6.321,-0.801l7.024,0.702l7.726,2.103l5.72,-1.202l5.92,-0.901h4.515z" fill="#fcb322"/><path d="M230.587,189.715l1.505,0.702l4.817,5.208l8.729,5.608l0.645,1.72l-13.488,1.084v9.014l1.304,4.606l2.709,4.607l-12.743,0.501l-1.806,-2.704l-2.458,-7.211v-4.707l1.154,-3.706l-7.024,-2.103l-4.315,-3.805l-0.602,-4.407l3.01,-4.407h18.563" fill="#71cbd2"/><path d="M267.02799,203.844c0.245,2.035 0.606,4.283 0.763,6.545c0.136,1.955 0.136,3.931 0.022,5.888c-0.17,2.917 -0.458,5.828 -0.779,8.733c-0.059,0.54 -0.505,1.036 -0.849,1.699c1.017,1.408 2.19,2.924 3.246,4.519c1.586,2.395 2.152,5.047 1.431,7.847c-0.868,3.37 -3.414,4.918 -6.48,5.497c-1.16,0.219 -2.51,0.181 -3.608,-0.205c-1.465,-0.514 -2.455,0.383 -3.622,0.713c-3.174,0.897 -6.063,0.458 -8.49,-1.807c-0.736,-0.687 -1.096,-1.771 -1.64,-2.667c-1.518,-2.504 -1.273,-5.217 -1.027,-7.957c0.066,-0.737 -0.117,-1.567 -0.421,-2.251c-0.866,-1.962 -1.88,-3.854 -2.776,-5.802c-0.435,-0.945 -0.774,-1.441 -2.11,-1.307c-5.172,0.519 -10.381,0.824 -15.563,1.109c-0.206,0.012 -0.943,-0.126 -1.117,0.015c-0.22,0.181 -0.331,0.994 -0.481,1.298c-0.23,0.466 -0.426,0.887 -0.599,1.373c-0.275,0.776 -0.227,0.952 0.29,1.677c1.645,2.304 3.609,4.588 4.921,7.178c1.055,2.078 0.696,4.5 -0.322,6.712c-1.02,2.218 -2.97,3.112 -5.14,3.695c-2.696,0.725 -5.918,0.793 -8.018,-1.419c0.405,0.427 -2.977,1.862 -3.293,1.905c-1.29,0.178 -2.731,-0.117 -3.923,-0.599c-2.435,-0.983 -4.603,-3.07 -5.263,-5.659c-0.657,-2.58 -0.786,-5.091 0.143,-7.689c0.238,-0.666 -0.46,-1.835 -0.998,-2.578c-1.993,-2.747 -3.201,-5.881 -3.979,-9.076c-0.905,-3.715 -0.784,-7.552 0.588,-11.237c0.508,-1.366 0.232,-1.886 -1.174,-2.423c-3.396,-1.297 -6.76,-0.815 -10.026,0.356c-1.701,0.608 -3.176,1.847 -4.878,2.451c-1.274,0.45 -2.818,0.664 -4.113,0.388c-1.296,-0.278 -1.588,-1.841 -1.755,-3.037c-0.377,-2.696 1.058,-4.774 2.723,-6.659c2.52,-2.851 5.83,-3.771 9.525,-3.609c2.102,0.092 4.237,-0.007 6.296,0.342c1.794,0.304 3.51,1.093 5.243,1.712c1.088,0.389 2.132,0.906 3.229,1.262c0.361,0.116 0.877,0.007 1.237,-0.17c1.275,-0.624 2.536,-1.286 3.745,-2.026c0.257,-0.158 0.473,-0.793 0.363,-1.07c-1.214,-3.047 0.065,-7.006 2.888,-8.755c0.108,-0.067 0.201,-0.158 0.182,-0.142c-0.868,-2.132 -1.88,-4.16 -2.521,-6.298c-1.153,-3.846 -1.473,-7.799 -1.002,-11.785c0.138,-1.163 0.32,-2.312 0.668,-3.445c0.824,-2.692 1.698,-5.521 3.112,-7.974c1.365,-2.37 3.132,-4.478 5.017,-6.451c4.208,-4.405 9.239,-7.529 15.012,-9.314c3.378,-1.044 6.912,-1.621 10.408,-2.229c1.968,-0.342 3.999,-0.318 6.241,-0.475c-0.38,-2.893 -0.76,-5.756 -1.128,-8.62c-0.113,-0.872 0.112,-2.066 -0.375,-2.531c-0.493,-0.47 -1.686,-0.153 -2.554,-0.293c-3.151,-0.508 -5.646,-2.049 -6.907,-5.045c-0.781,-1.859 -0.045,-3.787 0.374,-5.655c0.586,-2.594 2.408,-4.257 4.765,-4.875c2.743,-0.718 5.67,-1.12 8.357,0.526c4.442,2.722 5.72,7.378 2.507,11.784c-0.496,0.68 -1.151,1.214 -1.819,1.719c-0.585,0.444 -1.677,1.422 -2.431,1.396c-0.074,0.423 0.251,1.087 0.32,1.555c0.085,0.588 0.111,1.187 0.188,1.769c0.149,1.125 0.087,2.303 0.422,3.396c0.33,1.071 0.527,2.173 0.739,3.271c0.088,0.452 -0.027,1.41 0.329,1.751c0.414,0.395 1.579,0.28 2.106,0.296c0.99,0.028 2.054,-0.016 3.023,0.172c1.628,0.316 3.25,0.544 4.881,0.878c1.202,0.247 2.426,0.43 3.595,0.801c1.911,0.604 3.832,0.698 5.722,1.456c2.704,1.086 5.454,2.4 8.036,3.752c1.931,1.011 3.701,2.304 5.326,3.75c1.748,1.555 3.091,3.202 4.594,4.974c0.514,0.608 1.066,1.383 1.394,2.108c0.692,1.526 1.768,3.093 2.079,4.76c0.316,1.698 0.647,3.456 0.887,5.184c0.276,1.998 0.507,4.063 0.305,6.052c-0.491,4.834 -2.036,9.385 -4.621,13.517c-0.854,1.366 -1.986,2.581 -3.109,3.75c-1.474,1.535 -2.941,3.121 -4.635,4.383c-1.947,1.45 -4.085,2.679 -6.242,3.806c-2.307,1.204 -4.734,2.181 -7.454,3.414zM266.459,201.341c2.755,-1.043 5.681,-1.981 8.127,-3.639c1.542,-1.044 3.116,-2.065 4.521,-3.278c2.224,-1.92 4.694,-3.718 6.386,-6.054c2.885,-3.98 4.453,-8.58 4.974,-13.557c0.426,-4.061 -0.434,-7.859 -1.666,-11.621c-0.863,-2.637 -2.265,-4.851 -4.168,-6.828c-0.982,-1.019 -1.848,-2.154 -2.898,-3.08c-0.853,-0.753 -1.693,-1.512 -2.684,-2.086c-1.507,-0.872 -2.934,-1.974 -4.498,-2.703c-2.358,-1.097 -4.653,-2.213 -7.161,-2.967c-1.654,-0.498 -3.37,-0.852 -5.043,-1.279c-1.661,-0.425 -3.408,-0.33 -5.103,-0.476c-1.934,-0.166 -3.871,-0.288 -5.809,-0.357c-2.99,-0.106 -5.99,-0.038 -8.98,0.086c-1.273,0.052 -2.555,0.355 -3.791,0.697c-3.172,0.875 -6.421,1.587 -9.451,2.821c-4.794,1.953 -8.674,5.196 -12.189,9.047c-2.372,2.599 -3.929,5.451 -5.186,8.703c-0.596,1.54 -1.192,3.451 -1.441,5.081c-0.105,0.682 -0.183,1.407 -0.252,2.098c-0.15,1.492 -0.182,3.12 -0.053,4.619c0.264,3.065 1.622,5.995 2.906,8.731c0.518,1.105 1.17,2.373 1.876,3.358c0.925,1.291 1.969,2.591 3.289,3.479c1.353,0.909 2.452,2.181 3.875,3.035c1.618,0.972 3.362,1.711 5.084,2.476c2.023,0.9 4.059,1.805 6.165,2.476c2.278,0.727 4.637,1.22 6.976,1.742c1.257,0.281 2.548,0.41 3.825,0.607c-1.454,-1.143 -2.983,-1.914 -4.321,-2.934c-2.566,-1.957 -5.302,-3.763 -7.05,-6.596c-0.811,-1.312 -1.377,-2.436 -3.532,-1.938c-1.774,0.412 -3.464,0.062 -5.243,0.078c-0.883,0.009 -2.669,0.355 -3.128,-0.727c-0.821,-1.936 3.098,-1.54 3.964,-1.586c1.751,-0.093 3.503,-0.176 5.167,-0.258c-0.607,-1.898 -1.143,-3.573 -1.711,-5.35c-0.379,0.271 -0.708,0.422 -0.917,0.671c-1.656,1.979 -3.826,3.233 -6.128,4.259c-0.953,0.425 -2.565,0.209 -2.864,-0.651c-0.533,-1.53 -1.216,-3.037 -1.504,-4.613c-0.478,-2.619 -0.66,-5.29 -1.026,-7.93c-0.42,-3.04 -0.775,-6.077 0.075,-9.093c0.435,-1.541 1.286,-2.858 2.981,-3.155c1.107,-0.195 2.277,-0.109 3.413,-0.041c0.892,0.054 1.771,0.293 2.662,0.415c2.416,0.332 4.832,0.657 7.25,0.975c0.714,0.094 1.414,0.325 2.132,0.377c0.839,0.061 0.84,-0.221 1.438,-0.71c0.945,-0.773 2.216,-1.076 3.321,-1.54c0.767,-0.323 1.471,-0.734 2.223,-1.077c1.222,-0.556 2.756,-0.706 4.077,-0.915c2.437,-0.386 4.982,-0.418 7.451,-0.412c2.151,0.005 4.172,0.365 6.283,0.876c1.35,0.327 2.514,0.632 3.784,1.225c1.353,0.631 2.775,1.578 4.333,1.198c1.083,-0.263 2.119,-0.687 3.174,-1.038c3.158,-1.054 6.363,-1.578 9.72,-1.591c1.927,-0.007 3.034,0.815 3.709,2.32c0.711,1.584 1.388,3.253 1.66,4.95c0.658,4.107 1.118,8.246 1.549,12.384c0.091,0.877 -0.05,1.937 -0.487,2.677c-1.091,1.852 -3.151,2.361 -5.073,1.283c-1.261,-0.708 -2.364,-1.693 -3.632,-2.623c0,0.336 0.008,0.577 -0.001,0.817c-0.082,2.341 -0.306,4.825 -1.364,6.957c-0.474,0.957 -0.738,1.978 -1.302,2.906c-0.589,0.97 -1.33,1.838 -1.939,2.793c-0.772,1.212 -1.957,2.354 -3.031,3.311c-0.652,0.582 -1.286,1.188 -1.969,1.733c-0.475,0.379 -1.221,1.235 -1.775,1.442zM254.88,201.251c2.396,-0.021 4.799,-0.351 7.051,-1.189c1.763,-0.654 3.644,-0.964 5.256,-2.013c1.449,-0.94 3.057,-2.241 3.869,-3.797c0.889,-1.699 2.173,-3.236 2.834,-5.076c1.697,-4.735 2.299,-9.686 -0.263,-14.261c-1.386,-2.474 -3.251,-4.649 -5.334,-6.563c-1.048,-0.962 -2.164,-1.83 -3.283,-2.705c-1.691,-1.321 -3.589,-2.419 -5.664,-2.935c-3.124,-0.777 -6.074,-0.663 -9.259,-0.663c-1.648,0 -3.244,0.484 -4.875,0.567c-1.461,0.075 -2.737,0.837 -4.14,1.253c-1.353,0.401 -2.859,1.224 -3.963,2.102c-0.716,0.57 -1.3,1.356 -1.859,2.075c-1.198,1.54 -2.204,3.217 -3.041,4.978c-1.248,2.625 -0.649,5.661 -1.611,8.377c-0.082,0.23 -0.059,0.525 -0.002,0.771c0.248,1.054 0.449,2.129 0.809,3.145c1.442,4.091 3.656,7.612 7.103,10.409c2.105,1.708 4.467,3.11 6.894,4.213c0.817,0.371 1.673,0.422 2.536,0.633c2.247,0.543 4.402,0.681 6.738,0.681c0.068,-0.002 0.136,-0.002 0.204,-0.002zM264.824,204.878c0.035,-0.218 0.077,-0.369 0.131,-0.388c-2.549,0.968 -5.488,1.153 -8.188,1.161c-3.601,0.013 -7.182,-0.46 -10.741,-0.964c-1.467,-0.21 -3.034,-0.639 -4.508,-0.499c-1.491,0.142 -2.964,0.55 -4.447,0.762c-1.054,0.15 -2.464,-0.157 -3.081,0.418c-0.583,0.543 -0.353,1.969 -0.462,3.009c-0.363,3.479 -0.078,6.847 1.773,9.929c0.655,1.091 1.212,2.392 2.575,2.685c0.603,0.13 2.044,0.234 2.47,-0.366c0.395,-0.557 -0.074,-1.762 0.197,-2.474c0.594,-1.564 1.776,0.38 2.045,1.002c0.65,1.508 1.3,3.025 1.994,4.513c1.651,3.537 3.761,6.791 6.02,9.979c2.645,3.734 5.925,6.572 10.175,8.275c2.127,0.853 5.136,0.023 6.918,-1.869c1.281,-1.361 1.721,-4.444 0.576,-6.297c-1.732,-2.804 -3.658,-5.491 -5.582,-8.171c-1.25,-1.74 -2.752,-3.276 -3.881,-5.106c-1.331,-2.159 0.291,-2.835 1.448,-4.404c1.35,-1.831 2.397,-3.866 3.267,-5.961c0.414,-0.998 0.935,-2.053 1.121,-3.123c0.044,-0.245 0.078,-1.469 0.18,-2.111zM209.977,200.651c-1.1,0.398 -2.191,0.734 -3.232,1.181c-3.051,1.313 -4.732,3.922 -5.996,6.769c-1.989,4.483 -2.675,9.209 -0.801,13.839c1.323,3.267 3.124,6.38 5.03,9.36c1.418,2.217 3.357,4.101 5.044,6.15c1.687,2.047 3.291,3.651 5.602,5.022c2.638,1.565 5.059,1.493 7.878,0.363c1.937,-0.779 3.363,-2.959 2.889,-4.955c-0.379,-1.588 -1.034,-3.248 -2.02,-4.528c-2.452,-3.183 -5.156,-6.172 -7.784,-9.218c-0.222,-0.257 -0.613,-0.448 -0.954,-0.511c-1.132,-0.206 -2.284,-0.301 -3.415,-0.512c-0.921,-0.173 -4.703,-0.435 -4.381,-1.915c0.324,-1.483 4.813,-0.173 5.813,-0.062c1.244,0.139 2.493,0.262 3.744,0.309c1.435,0.052 2.875,0.012 4.504,0.012c-2.764,-5.361 -3.339,-10.866 -2.102,-16.714c-3.941,-0.295 -7.237,-1.738 -9.819,-4.59zM233.254,165.855c-1.271,-0.062 -2.402,-0.073 -3.523,-0.18c-2.562,-0.246 -5.116,-0.715 -7.679,-0.768c-2.983,-0.062 -3.938,-0.013 -4.389,3.38c-0.138,1.037 -0.154,2.106 -0.089,3.153c0.117,1.874 0.206,3.766 0.547,5.605c0.482,2.594 1.145,5.158 1.837,7.707c0.083,0.306 1.003,0.731 1.236,0.594c1.211,-0.712 2.383,-1.518 3.456,-2.424c1.075,-0.909 2.065,-1.932 2.994,-2.991c0.409,-0.466 0.674,-1.118 0.836,-1.731c0.575,-2.169 0.878,-4.431 1.664,-6.516c0.731,-1.94 1.947,-3.697 3.11,-5.829zM267.901,164.94c0.845,0.708 1.537,1.279 2.219,1.859c2.982,2.538 4.957,5.761 6.697,9.232c1.213,2.419 3.111,4.456 5.674,5.578c1.615,0.708 2.441,0.019 2.269,-1.757c-0.262,-2.695 -0.787,-5.371 -0.919,-8.07c-0.12,-2.492 -0.708,-4.835 -1.71,-7.053c-0.346,-0.765 -1.363,-1.711 -2.092,-1.727c-1.955,-0.042 -4.002,-0.619 -5.904,0.398c-0.215,0.115 -0.505,0.081 -0.753,0.144c-1.794,0.453 -3.586,0.913 -5.481,1.396zM239.395,121.483c-0.079,1.907 1.282,3.803 2.957,4.689c2.556,1.352 5.059,0.315 7.436,-0.209c2.114,-0.467 3.095,-2.671 3.246,-4.692c0.13,-1.761 -0.665,-3.463 -2.374,-4.515c-1.718,-1.059 -3.547,-1.17 -5.52,-1.137c-3.478,0.058 -5.656,2.582 -5.745,5.864zM234.136,202.905c-0.015,-0.056 -0.03,-0.111 -0.045,-0.167c-2.966,-1.222 -5.941,-2.42 -8.896,-3.673c-1.865,-0.791 -3.911,-1.374 -5.496,-2.56c-2.405,-1.795 -4.478,-4.033 -6.802,-6.185c-0.245,0.116 -0.774,0.201 -1.02,0.511c-2.913,3.662 -1.891,7.064 1.225,9.636c2.537,2.095 5.7,2.665 8.942,2.633c2.575,-0.026 5.148,-0.14 7.723,-0.19c1.454,-0.028 2.912,-0.005 4.369,-0.005zM201.384,203.062c-2.986,-1.936 -6.119,-2.942 -9.47,-3.292c-3.934,-0.411 -7.765,-0.451 -10.987,2.478c-1.428,1.298 -2.734,4.363 -2.31,5.938c0.213,0.789 0.566,1.141 1.369,0.768c0.499,-0.232 0.976,-0.51 1.477,-0.733c1.455,-0.652 2.954,-1.218 4.37,-1.944c1.894,-0.971 3.947,-1.054 5.984,-1.321c2.229,-0.292 4.225,0.483 6.278,1.11c0.428,0.131 1.18,0.02 1.442,-0.28c0.695,-0.79 1.204,-1.745 1.847,-2.724zM204.34,234.929c-1.76,2.288 -0.135,6.21 2.052,8.219c1.544,1.418 3.976,1.603 5.604,0.568c-2.534,-2.909 -5.085,-5.836 -7.656,-8.787zM221.877,214.376c-0.536,0.409 -0.194,1.297 0.269,1.971c0.537,0.781 1.407,1.174 2.349,1.128c2.561,-0.126 5.156,-0.016 7.723,-0.016c-0.339,-1.331 -0.608,-2.386 -0.832,-3.263c-1.519,0 -3.036,0 -4.555,0c-1.403,0 -3.169,-0.293 -4.534,0c-0.177,0.039 -0.315,0.101 -0.42,0.18zM265.50399,213.12c-0.051,-0.384 -0.153,-0.71 -0.337,-0.914c-0.224,0.92 -0.995,1.911 -1.404,2.816c-0.585,1.296 -1.833,2.167 -2.38,3.484c-0.59,1.423 0.437,2.004 1.027,3.169c0.252,0.5 1.38,3.088 2.225,2.099c0.621,-0.728 0.573,-2.23 0.609,-3.137c0.058,-1.447 0.18,-2.928 0.18,-4.385c0,-0.711 0.216,-2.125 0.08,-3.132zM248.177,234.177c-0.624,2.9 0.726,6.952 2.621,8.083c1.317,0.787 4.405,0.924 5.62,-0.273c-3.931,-1.351 -5.608,-4.965 -8.241,-7.81zM221.271,210.663c-0.019,1.473 0.281,1.88 1.146,1.827c2.521,-0.152 5.044,-0.264 7.568,-0.343c1.195,-0.037 1.351,-0.885 1.38,-1.725c0.032,-0.979 -0.667,-0.895 -1.424,-0.878c-2.262,0.05 -4.527,0.039 -6.786,-0.055c-1.39,-0.058 -1.87,0.15 -1.884,1.174zM234.29,221.517c0.029,-0.053 0.049,-0.119 0.058,-0.201c0.027,-0.271 -0.448,-0.835 -0.628,-1.017c-0.541,-0.548 -1.255,-0.716 -2.01,-0.649c-0.882,0.081 -1.786,-0.133 -2.681,-0.147c-1.918,-0.028 -3.886,0.032 -5.798,0.121c-0.348,1.948 1.833,2.413 3.392,2.475c2.241,0.092 4.485,0.005 6.705,-0.307c0.438,-0.062 0.817,-0.009 0.962,-0.275zM221.639,207.306c3.264,0 6.534,0 9.898,0c0.037,-0.637 0.079,-1.375 0.106,-1.872c-2.661,0 -5.222,0.004 -7.784,-0.001c-1.934,-0.004 -1.934,-0.008 -2.22,1.873zM221.097,224.288c-0.715,0 -1.245,0 -1.942,0c0.525,0.576 0.926,1.016 1.431,1.569c0.183,-0.561 0.321,-0.984 0.511,-1.569z" fill="#2a3d98"/></g><g fill="#2a3d98" stroke-width="1"><path d="M253.276,177.664c-0.5,0.112 -0.998,0.379 -1.396,0.273c-0.557,-0.15 -1.298,-0.465 -1.492,-0.911c-0.287,-0.664 0.204,-1.299 0.997,-1.307c2.318,-0.02 4.633,-1.485 6.969,0.048c0.851,0.559 1.057,1.135 0.388,1.856c-0.246,0.267 -0.775,0.363 -1.177,0.368c-0.349,0.004 -0.699,-0.232 -1.084,-0.377c-0.078,1.315 0.609,2.386 1.828,2.801c1.773,0.607 3.683,0.585 5.382,-0.241c1.987,-0.97 2.621,-2.371 3.296,-4.4c0.27,-0.808 0.464,-1.564 1.44,-1.053c0.162,0.487 0.581,0.749 0.766,1.278c0.66,1.885 -1.209,3.886 -2.545,5.027c-1.662,1.424 -3.897,2.452 -6.13,2.23c-1.876,-0.187 -3.407,-0.815 -4.656,-1.374c-1.143,0.845 -2.023,1.657 -3.044,2.214c-2.059,1.125 -5.128,0.048 -7.033,-1.028c-1.292,-0.729 -3.742,-1.983 -3.413,-3.727c0.43,-2.287 1.78,-0.01 2.542,0.668c1.482,1.318 3.399,1.805 5.3,2.175c2.66,0.52 4.08,-2.105 3.062,-4.52z"/><path d="M259.853,172.609c-0.194,-0.029 -0.391,-0.123 -0.579,-0.301c-0.777,-0.739 -0.679,-2.134 0.308,-2.72c1.057,-0.627 2.057,0.742 1.825,1.667c-0.179,0.712 -0.854,1.457 -1.554,1.354z"/><path d="M249.563,171.398c0.03,0.225 -0.013,0.463 -0.148,0.701c-0.709,1.248 -3.234,0.854 -3.128,-0.765c0.148,-2.258 3.095,-1.34 3.276,0.064z"/></g><path d="M292.50432,130.23519c-0.01078,0.00117 -0.02159,0.00228 -0.03243,0.00334c0.01545,0.01156 0.03132,0.02227 0.04762,0.03208c-0.0052,-0.01173 -0.01026,-0.02354 -0.01518,-0.03542zM284.93529,103.57918c-0.10632,-0.20739 -0.1731,-0.46794 -0.1731,-0.79528c0,-1.60434 1.60433,-1.60434 1.60433,-1.60434c5.70812,0 11.41625,-0.00328 17.12437,0c1.62358,0.00093 5.09136,-0.18898 6.12498,1.12051c0.85208,1.07949 -1.15567,4.03205 -1.54325,5.04135c-2.12927,5.54489 -5.04758,10.53223 -8.01091,15.70587c-1.34238,3.14138 -2.98395,10.52634 -7.54408,10.49118c-1.97996,-0.01526 -3.85383,-3.37685 -4.5896,-4.82791c-2.46296,-4.85735 -3.37852,-9.53214 -3.82304,-14.86056c-0.23232,-2.78475 -0.5215,-5.27011 0.02569,-8.06747l0.34807,-1.39978c0,0 0.11208,-0.4483 0.45653,-0.80357z" fill="#ffe166" stroke-width="0.5"/><path d="M292.07878,139.33822c0.7337,0 1.36913,0.42073 1.6782,1.03409c0.4676,0.09975 0.88227,0.31055 1.20123,0.67957c0.92914,1.07495 0.61622,2.80924 0.54094,4.22809c-0.15294,2.88251 -1.23943,4.51333 -4.64011,3.96694c-0.37306,-0.05994 -0.70068,-0.2304 -1.00638,-0.45409c-1.81646,-0.41862 -2.18335,-1.99444 -2.50721,-3.53731c-1.02337,-0.45911 -1.02337,-1.71205 -1.02337,-1.71205l0.03647,-0.75618c0.34627,-1.00779 0.16742,-2.40998 1.03879,-3.02338c1.06583,-0.75028 2.49822,-0.72428 3.83997,-0.22709c0.25312,-0.12706 0.53893,-0.19859 0.84145,-0.19859z" fill="#fff066" stroke-width="0.5"/></g></g></svg>